<svg xmlns="http://www.w3.org/2000/svg" width="24" height="24" viewBox="0 0 24 24">
  <g id="vuesax_bulk_subtitle" data-name="vuesax/bulk/subtitle" transform="translate(-300 -380)">
    <g id="subtitle">
      <path id="Vector" d="M2.6,1.5H.75A.755.755,0,0,1,0,.75.755.755,0,0,1,.75,0H2.6a.755.755,0,0,1,.75.75A.755.755,0,0,1,2.6,1.5Z" transform="translate(314.9 396.33)" fill="#6173C7"/>
      <path id="Vector-2" data-name="Vector" d="M7.22,1.5H.75A.755.755,0,0,1,0,.75.755.755,0,0,1,.75,0H7.22a.75.75,0,0,1,0,1.5Z" transform="translate(305.75 396.33)" fill="#6173C7"/>
      <path id="Vector-3" data-name="Vector" d="M6.28,1.5H.75A.755.755,0,0,1,0,.75.755.755,0,0,1,.75,0H6.28a.755.755,0,0,1,.75.75A.755.755,0,0,1,6.28,1.5Z" transform="translate(311.22 392.57)" fill="#6173C7"/>
      <path id="Vector-4" data-name="Vector" d="M3.52,1.5H.75A.755.755,0,0,1,0,.75.755.755,0,0,1,.75,0H3.52a.755.755,0,0,1,.75.75A.755.755,0,0,1,3.52,1.5Z" transform="translate(305.75 392.57)" fill="#6173C7"/>
      <path id="Vector-5" data-name="Vector" d="M14.19,0H5.81C2.17,0,0,2.17,0,5.81v8.37C0,17.83,2.17,20,5.81,20h8.37c3.64,0,5.81-2.17,5.81-5.81V5.81C20,2.17,17.83,0,14.19,0Z" transform="translate(302 382)" fill="#6173C7" opacity="0.4"/>
      <path id="Vector-6" data-name="Vector" d="M0,0H24V24H0Z" transform="translate(300 380)" fill="none" opacity="0"/>
    </g>
  </g>
</svg>
