<svg xmlns="http://www.w3.org/2000/svg" width="24" height="24" viewBox="0 0 24 24">
  <g id="vuesax_bulk_security-time" data-name="vuesax/bulk/security-time" transform="translate(-428 -188)">
    <g id="security-time">
      <path id="Vector" d="M0,0H24V24H0Z" transform="translate(428 188)" fill="none" opacity="0"/>
      <path id="Vector-2" data-name="Vector" d="M7.41.156l-5.5,2.06A3.191,3.191,0,0,0,0,4.986v8.1a3.32,3.32,0,0,0,1.18,2.36l5.5,4.11a3.119,3.119,0,0,0,3.53,0l5.5-4.11a3.339,3.339,0,0,0,1.18-2.36v-8.1a3.176,3.176,0,0,0-1.91-2.76L9.48.166A3.4,3.4,0,0,0,7.41.156Z" transform="translate(431.55 189.954)" fill="#6173C7" opacity="0.4"/>
      <g id="Group">
        <g id="Group-2" data-name="Group">
          <path id="Vector-3" data-name="Vector" d="M4.75,9.5A4.75,4.75,0,1,1,9.5,4.75,4.754,4.754,0,0,1,4.75,9.5Zm0-8A3.25,3.25,0,1,0,8,4.75,3.256,3.256,0,0,0,4.75,1.5Z" transform="translate(435.25 194.75)" fill="#6173C7"/>
        </g>
        <g id="Group-3" data-name="Group">
          <path id="Vector-4" data-name="Vector" d="M.746,3.74a.747.747,0,0,1-.38-1.39l.76-.46a.247.247,0,0,0,.12-.21V.75A.755.755,0,0,1,2,0a.747.747,0,0,1,.75.74v.93a1.763,1.763,0,0,1-.85,1.5l-.77.46A.648.648,0,0,1,.746,3.74Z" transform="translate(438.254 197.51)" fill="#6173C7"/>
        </g>
      </g>
    </g>
  </g>
</svg>
