<svg width="84" height="166" viewBox="0 0 84 166" fill="none" xmlns="http://www.w3.org/2000/svg">
<path d="M72.07 121.707C73.1392 118.783 73.7072 115.699 73.75 112.585C73.8148 105.003 71.9569 97.529 68.35 90.86C64.75 84.2213 58.3887 76.6597 49.266 68.175C45.1027 64.175 42.462 61.6147 41.344 60.494C35.5833 54.4133 32.7027 48.492 32.702 42.73C32.702 37.61 34.3423 33.569 37.623 30.607C40.9037 27.645 45.2647 26.1647 50.706 26.166C61.2687 26.166 72.151 31.207 83.353 41.289V13.923C72.4683 4.64567 60.3857 0.00466667 47.105 0C34.779 0 24.6167 3.521 16.618 10.563C7.818 18.2437 3.418 28.0857 3.418 40.089C3.418 53.855 9.25933 66.4977 20.942 78.017C22.542 79.4577 24.542 81.2983 26.942 83.539C35.4233 91.6997 40.9047 97.5807 43.386 101.182C45.8516 104.741 47.1511 108.978 47.105 113.307C47.0977 116.215 46.4415 119.085 45.184 121.707H72.07ZM74.23 160.596C77.43 157.396 79.03 153.235 79.03 148.113C79.03 142.832 77.43 138.551 74.23 135.27C71.03 131.989 66.7893 130.349 61.508 130.349C56.2267 130.349 51.9057 131.909 48.545 135.03C46.9007 136.533 45.5994 138.372 44.7295 140.422C43.8596 142.473 43.4417 144.686 43.504 146.913C43.504 152.513 45.1443 156.994 48.425 160.356C51.7057 163.718 56.0667 165.398 61.508 165.397C66.7893 165.397 71.03 163.797 74.23 160.597" fill="#FFCA63"/>
<path d="M23.961 148.778C24.319 147.769 24.5089 146.708 24.523 145.638C24.5461 143.034 23.9257 140.465 22.717 138.159C21.0062 135.241 18.8529 132.607 16.334 130.35C14.9407 128.973 14.0577 128.091 13.685 127.705C11.7577 125.612 10.794 123.573 10.794 121.59C10.7543 120.817 10.8806 120.045 11.1646 119.325C11.4485 118.605 11.8834 117.955 12.44 117.417C13.6445 116.358 15.2141 115.81 16.816 115.888C20.3493 115.888 23.9887 117.623 27.734 121.094V111.678C24.4374 108.615 20.1108 106.902 15.611 106.878C11.8708 106.739 8.21985 108.04 5.411 110.514C3.97492 111.781 2.8352 113.348 2.07271 115.104C1.31023 116.861 0.943651 118.764 0.998998 120.678C0.998998 125.417 2.95266 129.77 6.86 133.735C7.39333 134.231 8.06233 134.864 8.867 135.635C10.8664 137.503 12.7061 139.535 14.367 141.709C15.1948 142.943 15.6285 144.4 15.611 145.886C15.6093 146.885 15.3902 147.872 14.969 148.778H23.961ZM24.684 162.165C25.2252 161.592 25.6461 160.916 25.9218 160.177C26.1974 159.439 26.3223 158.653 26.289 157.865C26.3584 156.238 25.7815 154.65 24.684 153.447C24.1341 152.881 23.4706 152.437 22.7371 152.145C22.0036 151.853 21.2167 151.719 20.428 151.753C19.6349 151.722 18.8436 151.849 18.0996 152.125C17.3556 152.402 16.6736 152.823 16.093 153.364C15.5398 153.889 15.1037 154.524 14.8132 155.229C14.5226 155.934 14.3842 156.693 14.407 157.455C14.3231 159.154 14.9148 160.818 16.053 162.083C16.6184 162.665 17.3006 163.12 18.0546 163.419C18.8087 163.718 19.6176 163.854 20.428 163.818C21.2133 163.853 21.9972 163.724 22.7299 163.439C23.4626 163.155 24.1281 162.721 24.684 162.165" fill="#6173C7"/>
</svg>
