<svg xmlns="http://www.w3.org/2000/svg" width="407.832" height="153.979" viewBox="0 0 407.832 153.979">
  <g id="Group_1489" data-name="Group 1489" transform="translate(-0.5 511.869)">
    <g id="Group_750" data-name="Group 750" transform="translate(0.5 -361.34)">
      <path id="Path_600" data-name="Path 600" d="M0,0A3.319,3.319,0,0,0,1.033,2.417,3.313,3.313,0,0,0,3.445,3.45H22.562a3.508,3.508,0,0,0,2.583-1.033A3.308,3.308,0,0,0,26.179,0V-40.3q0-3.442,1.464-4.736t5.425-1.292a30.869,30.869,0,0,0,12.658,6.286,63.3,63.3,0,0,0,15.243,1.809q17.91,0,27.039-7.75a41.454,41.454,0,0,0,12.142,4.133,68.169,68.169,0,0,0,12.142,1.206h3.1V-67.389h-5.34a23.436,23.436,0,0,1-5.08-.689q-3.015-.691-3.875-2.589.169-1.728.258-3.539t.086-3.364V-87.925A46.694,46.694,0,0,0,98.6-105.008a31.975,31.975,0,0,0-8.094-12.08,34.039,34.039,0,0,0-12.659-7.25,52.6,52.6,0,0,0-16.362-2.416,50.91,50.91,0,0,0-16.361,2.5,35.135,35.135,0,0,0-12.745,7.416,33.841,33.841,0,0,0-8.353,12.245,44.894,44.894,0,0,0-3.014,17.158v9.314q0,1.9.258,4.658a24,24,0,0,0,.6,3.964q-10.164.347-16.017,6.552T0-43.8ZM46.846-86.281q0-9.3,3.617-13.261t10.85-3.961q7.233,0,10.764,3.961t3.531,13.261V-78.7q0,9.474-3.7,12.659T60.969-62.858q-7.751,0-10.937-3.961T46.846-79.392ZM108.5-42.535q0,.864,1.981,1.378a14.193,14.193,0,0,0,3.53.517h4.134q3.1,0,6.458-.259a53.838,53.838,0,0,0,6.717-.947,49.541,49.541,0,0,0,6.545-1.808,22.272,22.272,0,0,0,5.6-2.842,26.387,26.387,0,0,0,11.97,4.736,92.576,92.576,0,0,0,14.381,1.12h2.239v-26.7h-5.339c-.689,0-1.493-.027-2.411-.086a25.151,25.151,0,0,1-2.842-.344,16.235,16.235,0,0,1-2.669-.689,3.571,3.571,0,0,1-1.723-1.12v-44.607a3.036,3.036,0,0,0-1.033-2.325,3.469,3.469,0,0,0-2.411-.947H134.164a3.613,3.613,0,0,0-2.669.947,3.161,3.161,0,0,0-.948,2.325v41.335a5.2,5.2,0,0,1-.775,3.014,4.547,4.547,0,0,1-1.98,1.636,9.629,9.629,0,0,1-2.756.689,26.289,26.289,0,0,1-2.928.172h-8.1a14.193,14.193,0,0,0-3.53.517q-1.979.518-1.981,1.378Zm3.961,36.857a3.361,3.361,0,0,0,1.206,2.5,4.15,4.15,0,0,0,2.928,1.12h14.984a4.573,4.573,0,0,0,2.927-1.12,3.21,3.21,0,0,0,1.378-2.5V-22.212a3.6,3.6,0,0,0-1.291-2.842,4.456,4.456,0,0,0-3.014-1.119H116.6a4.14,4.14,0,0,0-2.928,1.119,3.714,3.714,0,0,0-1.206,2.842Zm34.963,0a3.2,3.2,0,0,0,1.377,2.5,4.572,4.572,0,0,0,2.928,1.12h14.984a4.155,4.155,0,0,0,2.928-1.12,3.361,3.361,0,0,0,1.206-2.5V-22.212a3.714,3.714,0,0,0-1.206-2.842,4.145,4.145,0,0,0-2.928-1.119H151.731a4.56,4.56,0,0,0-2.928,1.119,3.5,3.5,0,0,0-1.377,2.842Zm56.661-4.307q0,1.72,2.584,1.723h36q2.752,0,2.755-1.723v-4.133q0-1.724-2.755-1.722h-36a5.589,5.589,0,0,0-1.9.258c-.457.172-.689.659-.689,1.464Zm-38.923-32.55q0,.864,1.981,1.378a14.193,14.193,0,0,0,3.53.517h4.651a49.438,49.438,0,0,0,10.764-1.206,22.965,22.965,0,0,0,9.214-4.133,19.964,19.964,0,0,0,5.425,3.7,39.215,39.215,0,0,0,7.32,2.669,61.817,61.817,0,0,0,8.267,1.55,70.654,70.654,0,0,0,8.439.517A55.7,55.7,0,0,0,240-39.521a28.4,28.4,0,0,0,11.8-6.458A37.424,37.424,0,0,0,262.9-41.846a59.113,59.113,0,0,0,11.8,1.206h4.133v-26.7H273.84a18.534,18.534,0,0,1-2.239-.172,17.584,17.584,0,0,1-2.842-.6,8.843,8.843,0,0,1-2.583-1.211,4.531,4.531,0,0,1-1.637-1.986,12.508,12.508,0,0,0,.345-3.022V-87.2a47.475,47.475,0,0,0-2.842-17.185,32.7,32.7,0,0,0-8.095-12.263,33.452,33.452,0,0,0-12.572-7.341,51.7,51.7,0,0,0-16.276-2.42,51.623,51.623,0,0,0-16.447,2.506,34.97,34.97,0,0,0-12.831,7.427,33.9,33.9,0,0,0-8.353,12.263,45.023,45.023,0,0,0-3.014,17.188v14.682a3.427,3.427,0,0,1-.345,1.553,3.68,3.68,0,0,1-3.272,2.939,27.392,27.392,0,0,1-5,.516h-5.167a14.193,14.193,0,0,0-3.53.517q-1.979.518-1.981,1.378ZM213.9-99.284q3.616-3.875,10.85-3.875t10.764,3.875q3.528,3.876,3.531,13.348V-78.7q0,9.3-3.617,13T224.755-62a17.507,17.507,0,0,1-9.214-2.239q-3.706-2.235-4.737-7.75a40.962,40.962,0,0,1-.516-6.717v-7.233q0-9.47,3.617-13.348m58.039,56.749q0,.864,1.981,1.378a14.194,14.194,0,0,0,3.531.517h89.989q6.285,0,12.831-.173t12.228-.258a78.232,78.232,0,0,0,8.267-.43,4.8,4.8,0,0,0,3.444-1.812,10.923,10.923,0,0,0,1.55-3.194,62.677,62.677,0,0,0,.861-6.211q.344-3.624.6-7.333t.431-7.422q.17-3.709.172-6.644v-5.867q0-13.458-3.7-22.693a37.4,37.4,0,0,0-10.42-14.928,39.909,39.909,0,0,0-16.1-8.11,82.514,82.514,0,0,0-20.581-2.417q-2.931,0-7.492.347A80.156,80.156,0,0,0,339.8-126.4,75.833,75.833,0,0,0,329.3-123.45a35.31,35.31,0,0,0-9.645,5.2v-6.071a3.336,3.336,0,0,0-1.033-2.427,3.3,3.3,0,0,0-2.411-1.042h-19.29a3.8,3.8,0,0,0-2.669,1.037,3.2,3.2,0,0,0-1.12,2.419v57H277.456a14.194,14.194,0,0,0-3.531.517q-1.979.518-1.981,1.378Zm47.707-52.529a29.443,29.443,0,0,1,7.062-3.7,49.333,49.333,0,0,1,8.181-2.239q4.218-.776,8.18-1.12t6.89-.344q16.533,0,23.853,5.425t7.32,18.515V-75.6q0,5.514-1.034,7.234a3.381,3.381,0,0,1-3.1,1.722H340.835q-6.546,0-12.055-.086t-9.129-.258Z" fill="#6173c7"/>
    </g>
    <g id="Group_751" data-name="Group 751" transform="translate(334.685 -506.013)">
      <path id="Path_601" data-name="Path 601" d="M0,0Q0,1.9,2.583,1.895h36q2.753,0,2.756-1.895V-4.133q0-1.721-2.756-1.723h-36Q0-5.856,0-4.133Z" fill="#6173c7"/>
    </g>
  </g>
</svg>
