<svg xmlns="http://www.w3.org/2000/svg" width="113.111" height="83.611" viewBox="0 0 113.111 83.611">
  <g id="Group_858" data-name="Group 858" transform="translate(-1097.532 -1902.001)">
    <g id="Group_828" data-name="Group 828" transform="translate(1195.399 1943.876)">
      <path id="Path_672" data-name="Path 672" d="M0,0V-32.5H-88.5V40.529H-14.06M-88.5-21.439H0" fill="none" stroke="#333f54" stroke-width="2.414"/>
    </g>
    <path id="Path_673" data-name="Path 673" d="M1073.17-117.348h-66.039v-10.214h66.039Z" transform="translate(111 2058.982)" fill="#ffc123"/>
    <path id="Path_674" data-name="Path 674" d="M0,0H0A8.347,8.347,0,0,0-8.354,8.341v3.116H8.353V8.341A8.346,8.346,0,0,0,0,0ZM14.106,40.59H-14.107V11.458H14.106Z" transform="translate(1195.33 1943.815)" fill="none" stroke="#333f54" stroke-linecap="round" stroke-linejoin="round" stroke-width="2.414"/>
    <g id="Group_831" data-name="Group 831" transform="translate(1106.917 1976.241)">
      <path id="Path_676" data-name="Path 676" d="M0,0H-8.178V-73.033H69.4v8.18" fill="none" stroke="#333f54" stroke-width="2.414"/>
    </g>
    <g id="Group_832" data-name="Group 832" transform="translate(1199.226 1967.408)">
      <path id="Path_677" data-name="Path 677" d="M0,0A3.883,3.883,0,0,0-3.9-3.871,3.883,3.883,0,0,0-7.791,0,3.883,3.883,0,0,0-3.9,3.871,3.883,3.883,0,0,0,0,0ZM-3.9,3.871v4.3" fill="none" stroke="#333f54" stroke-linecap="round" stroke-linejoin="round" stroke-width="2.414"/>
    </g>
    <g id="Group_843" data-name="Group 843" transform="translate(1138.039 1953.567)">
      <path id="Path_688" data-name="Path 688" d="M0,0H26.539M0,8.556H26.539" fill="none" stroke="#6173c7" stroke-width="2"/>
    </g>
  </g>
</svg>
