<svg xmlns="http://www.w3.org/2000/svg" width="104.034" height="90.642" viewBox="0 0 104.034 90.642">
  <g id="Group_855" data-name="Group 855" transform="translate(-364.746 -1668.637)">
    <path id="Path_630" data-name="Path 630" d="M0,0A3.334,3.334,0,0,0-3.334-3.334,3.334,3.334,0,0,0-6.667,0,3.334,3.334,0,0,0-3.334,3.334,3.334,3.334,0,0,0,0,0" transform="translate(404.221 1677.578)" fill="#ffc123"/>
    <g id="Group_792" data-name="Group 792" transform="translate(365.953 1758.073)">
      <path id="Path_632" data-name="Path 632" d="M0,0H99.344" fill="none" stroke="#333f54" stroke-linecap="round" stroke-width="2.414"/>
    </g>
    <path id="Path_633" data-name="Path 633" d="M265.87-345.044H254.953v34.865H265.87Z" transform="translate(111 2058.982)" fill="#6173c7"/>
    <path id="Path_634" data-name="Path 634" d="M354.3-363.141H343.38v52.962H354.3Z" transform="translate(111 2058.982)" fill="#ffc123"/>
    <path id="Path_635" data-name="Path 635" d="M295.346-363.8H284.429v53.626h10.917Z" transform="translate(111 2058.982)" fill="#ffc123"/>
    <path id="Path_636" data-name="Path 636" d="M0,0A7.734,7.734,0,0,0-7.734-7.734,7.734,7.734,0,0,0-15.468,0,7.734,7.734,0,0,0-7.734,7.734,7.734,7.734,0,0,0,0,0Z" transform="translate(408.621 1677.578)" fill="none" stroke="#333f54" stroke-width="2.414"/>
    <path id="Path_637" data-name="Path 637" d="M0,0A3.334,3.334,0,0,0-3.334-3.334,3.334,3.334,0,0,0-6.667,0,3.334,3.334,0,0,0-3.334,3.334,3.334,3.334,0,0,0,0,0" transform="translate(463.173 1678.242)" fill="#ffc123"/>
    <path id="Path_638" data-name="Path 638" d="M0,0A7.734,7.734,0,0,0-7.734-7.734,7.734,7.734,0,0,0-15.468,0,7.734,7.734,0,0,0-7.734,7.734,7.734,7.734,0,0,0,0,0Z" transform="translate(467.573 1678.242)" fill="none" stroke="#333f54" stroke-width="2.414"/>
    <path id="Path_640" data-name="Path 640" d="M324.822-347.037H313.9v36.858h10.917Z" transform="translate(111 2058.982)" fill="#6173c7"/>
    <path id="Path_641" data-name="Path 641" d="M0,0A4.649,4.649,0,0,0-4.649-4.649,4.649,4.649,0,0,0-9.3,0,4.649,4.649,0,0,0-4.649,4.649,4.649,4.649,0,0,0,0,0ZM-58.952,1.992A4.648,4.648,0,0,0-63.6-2.656a4.648,4.648,0,0,0-4.649,4.648A4.648,4.648,0,0,0-63.6,6.641,4.648,4.648,0,0,0-58.952,1.992ZM-60.118-1.08l19.347-11.748M-27-13.763-9.3-2.656m8.74.448L17.857-12.771" transform="translate(435.012 1694.347)" fill="none" stroke="#333f54" stroke-width="2.414"/>
  </g>
</svg>
