<svg xmlns="http://www.w3.org/2000/svg" width="102.892" height="102.892" viewBox="0 0 102.892 102.892">
  <g id="Group_859" data-name="Group 859" transform="translate(-1477.161 -1894.591)">
    <path id="Path_646" data-name="Path 646" d="M0,0A.745.745,0,0,0-.8-.159L-99.789,41.687a.736.736,0,0,0-.449.659.741.741,0,0,0,.425.68L-69.1,57.543a.735.735,0,0,0,.6.014l18.967-8.013L-57.559,68.5a.713.713,0,0,0,.018.6L-43.028,99.82a.734.734,0,0,0,.663.417h.017a.718.718,0,0,0,.655-.445L.159.8A.741.741,0,0,0,0,0Z" transform="translate(1578.607 1896.04)" fill="none" stroke="#333f54" stroke-linecap="round" stroke-linejoin="round" stroke-width="2.414"/>
    <g id="Group_804" data-name="Group 804" transform="translate(1550.445 1924.207)">
      <path id="Path_648" data-name="Path 648" d="M0,0-15.168,35.589l-2.255-11.446L-12.5,12.5l-11.647,4.918-11.912-2.122Z" fill="#6173c7"/>
    </g>
    <g id="Group_849" data-name="Group 849" transform="translate(1554.206 1912.001)">
      <path id="Path_697" data-name="Path 697" d="M0,0,8,8,13-4Z" fill="#ffc123"/>
    </g>
  </g>
</svg>
