<svg xmlns="http://www.w3.org/2000/svg" width="105.693" height="101.445" viewBox="0 0 105.693 101.445">
  <g id="Group_852" data-name="Group 852" transform="translate(-732.579 -1432.491)">
    <path id="Path_616" data-name="Path 616" d="M0,0-.014-3.016l-.378-.022a11.484,11.484,0,0,1-2.248-.4,11.675,11.675,0,0,1-1.635-.518L-4.25-6.7a16.625,16.625,0,0,0,2.236.641,13.42,13.42,0,0,0,3.124.387A5.659,5.659,0,0,0,5.03-7.022a4.479,4.479,0,0,0,1.512-3.465,5.83,5.83,0,0,0-.43-2.293,4.348,4.348,0,0,0-1.2-1.657A17.6,17.6,0,0,0,1.689-16.21L-.6-17.279a8.811,8.811,0,0,1-3.9-3.07,7.993,7.993,0,0,1-1.095-4.274,6.67,6.67,0,0,1,1.6-4.438A6.848,6.848,0,0,1-.309-31.31l.285-.085L0-34.552H2.9l-.014,3.044.393.01a8.252,8.252,0,0,1,3.775,1.024l0,2.667a11.965,11.965,0,0,0-1.84-.752A9.918,9.918,0,0,0,2.14-29.1a4.638,4.638,0,0,0-3.4,1.243,4.3,4.3,0,0,0-1.255,3.179,5.141,5.141,0,0,0,.443,2.147A4.58,4.58,0,0,0-.8-20.875a16.463,16.463,0,0,0,3.034,1.722l1.789.836a10.328,10.328,0,0,1,4.266,3.329A8.782,8.782,0,0,1,9.621-9.962,6.1,6.1,0,0,1,7.856-5.606,7.329,7.329,0,0,1,3.284-3.292l-.334.058L2.944,0Z" transform="translate(772.55 1512.12)" fill="#6173c7"/>
    <path id="Path_617" data-name="Path 617" d="M0,0-11.484-15.445h-32.5L-60.3,6.493a40.526,40.526,0,0,0-8.213,24.172c.032,13.482,7.089,29.661,40.777,29.661,13.539,0,19.052-.268,19.052-.268M-10-22H-45.469a1.967,1.967,0,0,0-1.961,1.962v2.628a1.967,1.967,0,0,0,1.961,1.962H-10a1.968,1.968,0,0,0,1.961-1.962v-2.628A1.968,1.968,0,0,0-10-22Zm-6.421-14.5-3.164,3.164-1.391-1.391a9.291,9.291,0,0,0-13.142,0l-1.392,1.391L-38.677-36.5a7.522,7.522,0,0,0-10.64,0l-3.92,3.92L-42.317-22h29.534l10.92-10.584-3.92-3.92A7.523,7.523,0,0,0-16.424-36.5ZM34.766,0H-8.684V60.058h43.45Z" transform="translate(802.299 1472.403)" fill="none" stroke="#333f54" stroke-width="2.414"/>
    <path id="Path_689" data-name="Path 689" d="M719.968-533.016H688.711v-30.41h31.257ZM688.712-553.29h31.256m-31.256,10.137h31.256m-31.256,10.137h31.256m-31.256-30.41v10.136m20.837-10.136v30.41m10.419-30.41v10.136m-10.419,0H688.711v-10.137h20.838Zm-10.418,0v20.274" transform="translate(111 2058.982)" fill="none" stroke="#333f54" stroke-width="2.414"/>
    <path id="Path_690" data-name="Path 690" d="M719.968-580.481H688.711v7.684h31.257Z" transform="translate(111 2058.982)" fill="#ffca63"/>
  </g>
</svg>
