<svg xmlns="http://www.w3.org/2000/svg" width="104.165" height="101.197" viewBox="0 0 104.165 101.197">
  <g id="Group_857" data-name="Group 857" transform="translate(-364.681 -1890.488)">
    <path id="Path_649" data-name="Path 649" d="M0,0A5.891,5.891,0,0,1-5.89,5.891,5.892,5.892,0,0,1-11.781,0,5.891,5.891,0,0,1-5.89-5.89,5.891,5.891,0,0,1,0,0ZM-5.89,10.991V21.108M3.542,37.07v-14.1m-18.864,0v14.1m-7.526,0V18.845c0-4.338,2.318-7.854,6.655-7.854h20.6m0,0h0c4.339,0,6.658,3.516,6.658,7.854V28.93M33.917,0a5.891,5.891,0,0,1-5.89,5.891A5.891,5.891,0,0,1,22.137,0a5.89,5.89,0,0,1,5.89-5.89A5.891,5.891,0,0,1,33.917,0Zm-5.89,10.991V21.108M37.459,37.07v-14.1m-18.864,0v14.1m-7.526-8.14V18.845c0-4.338,2.318-7.854,6.656-7.854h20.6m0,0h0c4.339,0,6.658,3.516,6.658,7.854V28.93M67.834,0a5.891,5.891,0,0,1-5.89,5.891A5.892,5.892,0,0,1,56.053,0a5.891,5.891,0,0,1,5.891-5.89A5.89,5.89,0,0,1,67.834,0Zm-5.89,10.991V21.108M71.376,37.07v-14.1m-18.864,0v14.1m-7.526-8.14V18.845c0-4.338,2.318-7.854,6.656-7.854h20.6m0,0h0c4.338,0,6.657,3.516,6.657,7.854V37.07m-94.225,0h86.7" transform="translate(388.736 1953.408)" fill="none" stroke="#333f54" stroke-linecap="round" stroke-width="2.414"/>
    <path id="Path_694" data-name="Path 694" d="M341.126-161.186H270.4v36.607h70.728Zm0,36.607.859-36.607H269.54a2.918,2.918,0,0,1-2.6-3.154,2.919,2.919,0,0,1,2.6-3.154h72.445a2.918,2.918,0,0,1,2.6,3.154A2.917,2.917,0,0,1,341.985-161.186ZM308.51-124.579v6.512m-5.495,0v-6.512" transform="translate(111 2058.982)" fill="none" stroke="#ffc123" stroke-width="2"/>
    <g id="Group_848" data-name="Group 848" transform="translate(393.688 1923.416)">
      <path id="Path_696" data-name="Path 696" d="M0,0,12.676-9.721l6,6.107,10.175-7.953,5.02,5.189L46.15-15.571" fill="none" stroke="#6173c7" stroke-width="3"/>
    </g>
  </g>
</svg>
