<svg xmlns="http://www.w3.org/2000/svg" width="127.818" height="93.065" viewBox="0 0 127.818 93.065">
  <g id="Group_850" data-name="Group 850" transform="translate(-1464.687 -1441.776)">
    <g id="Group_835" data-name="Group 835" transform="translate(1519.828 1516.673)">
      <path id="Path_680" data-name="Path 680" d="M0,0H15.73a31.46,31.46,0,0,0,.422,7.971,11.051,11.051,0,0,0,6.122,7.405c.921.472.491,1.585-.612,1.585H-21.662c-1.1,0-1.532-1.113-.612-1.585a11.052,11.052,0,0,0,6.123-7.405A31.487,31.487,0,0,0-15.73,0ZM1.053-6.479A1.054,1.054,0,0,1,0-5.425,1.055,1.055,0,0,1-1.053-6.479,1.053,1.053,0,0,1,0-7.533,1.053,1.053,0,0,1,1.053-6.479ZM36.317,0H-48.614a5.323,5.323,0,0,1-5.32-5.325v-7.634h20.863m69.312,0H-53.934V-67.916a5.772,5.772,0,0,1,5.769-5.774H48.166a5.772,5.772,0,0,1,5.768,5.774v26.808" fill="none" stroke="#333f54" stroke-linecap="round" stroke-linejoin="round" stroke-width="2.414"/>
    </g>
    <g id="Group_836" data-name="Group 836" transform="translate(1587.727 1522.005)">
      <path id="Path_681" data-name="Path 681" d="M0,0H-28.438M.84,11.629H-29.279a2.722,2.722,0,0,1-2.729-2.715V-43.907a2.721,2.721,0,0,1,2.729-2.714H.84a2.721,2.721,0,0,1,2.73,2.714V8.914A2.722,2.722,0,0,1,.84,11.629ZM-13.271,5.868a.945.945,0,0,0-.948-.943.946.946,0,0,0-.949.943.947.947,0,0,0,.949.943A.946.946,0,0,0-13.271,5.868Z" fill="none" stroke="#333f54" stroke-width="2.414"/>
    </g>
    <g id="Group_838" data-name="Group 838" transform="translate(1569.779 1481.438)">
      <path id="Path_683" data-name="Path 683" d="M0,0H7.458" fill="none" stroke="#333f54" stroke-linecap="round" stroke-linejoin="round" stroke-width="2.414"/>
    </g>
    <path id="Path_684" data-name="Path 684" d="M0,0A1.939,1.939,0,0,1-1.281-.482c-30.852-26.992-62.1-.273-62.414,0a1.949,1.949,0,0,1-2.749-.183,1.948,1.948,0,0,1,.184-2.749c.336-.3,34.158-29.214,67.544,0A1.949,1.949,0,0,1,1.467-.665,1.944,1.944,0,0,1,0,0" transform="translate(1551.268 1474.147)" fill="#6173c7"/>
    <path id="Path_685" data-name="Path 685" d="M0,0A1.944,1.944,0,0,1-1.282-.482c-23.463-20.529-46.609-.846-47.583,0a1.948,1.948,0,0,1-2.748-.188,1.948,1.948,0,0,1,.184-2.746c.264-.229,26.66-22.8,52.713,0A1.949,1.949,0,0,1,1.467-.665,1.944,1.944,0,0,1,0,0" transform="translate(1543.852 1483.14)" fill="#ffc123"/>
    <path id="Path_686" data-name="Path 686" d="M0,0A1.944,1.944,0,0,1-1.282-.482c-15.514-13.573-30.856-.558-31.5,0a1.95,1.95,0,0,1-2.748-.19,1.947,1.947,0,0,1,.185-2.745c.183-.16,18.523-15.844,36.63,0A1.948,1.948,0,0,1,1.467-.665,1.944,1.944,0,0,1,0,0" transform="translate(1535.811 1489.908)" fill="#6173c7"/>
  </g>
</svg>
