<svg xmlns="http://www.w3.org/2000/svg" width="105.243" height="100.31" viewBox="0 0 105.243 100.31">
  <g id="Group_853" data-name="Group 853" transform="translate(-364.141 -1432.492)">
    <path id="Path_623" data-name="Path 623" d="M0,0A7.272,7.272,0,0,0-4.846-7.722h0L.377-20.664l5.139,5.725a11.185,11.185,0,0,1,2.1,11.554L2.747,6.576A7.692,7.692,0,0,0,9.41,17.686H30.144a9.045,9.045,0,0,0,9.105-8.141,8.867,8.867,0,0,0-6.583-9.3,5.668,5.668,0,0,0,.048-.694,5.457,5.457,0,0,0-5.456-5.457,5.41,5.41,0,0,0-1.4.188c0-.028,0-.055,0-.083a5.354,5.354,0,0,0-5.353-5.354,5.334,5.334,0,0,0-4.058,1.869" transform="translate(428.896 1513.908)" fill="none" stroke="#333f54" stroke-linecap="round" stroke-linejoin="round" stroke-width="2.414"/>
    <path id="Path_624" data-name="Path 624" d="M0,0A28.5,28.5,0,0,1-10.431,1.638,28.487,28.487,0,0,1-20.86,0M-3.725,20.7a6.706,6.706,0,0,0-6.706-6.706,6.705,6.705,0,0,0-6.7,6.706,6.7,6.7,0,0,0,6.7,6.7A6.705,6.705,0,0,0-3.725,20.7Z" transform="translate(427.193 1448.203)" fill="none" stroke="#333f54" stroke-width="2.414"/>
    <path id="Path_625" data-name="Path 625" d="M0,0C-.087,5.117,1.206,11.986,4.52,21.03,7.834,11.986,9.126,5.117,9.04,0" transform="translate(412.242 1510.565)" fill="none" stroke="#333f54" stroke-linecap="round" stroke-linejoin="round" stroke-width="2.414"/>
    <path id="Path_626" data-name="Path 626" d="M0,0A2.557,2.557,0,0,1,.7,1.755a2.57,2.57,0,0,1-2.57,2.57,2.553,2.553,0,0,1-1.756-.7A3.335,3.335,0,0,0-.308,6.66,3.346,3.346,0,0,0,3.037,3.315,3.335,3.335,0,0,0,0,0" transform="translate(417.072 1465.584)" fill="#ffc423"/>
    <path id="Path_627" data-name="Path 627" d="M0,0A7.272,7.272,0,0,1,4.846-7.722h0L-.377-20.664l-5.139,5.725a11.185,11.185,0,0,0-2.1,11.554l4.866,9.961A7.693,7.693,0,0,1-9.41,17.686H-30.144a9.045,9.045,0,0,1-9.105-8.141,8.867,8.867,0,0,1,6.583-9.3,5.668,5.668,0,0,1-.048-.694,5.457,5.457,0,0,1,5.456-5.457,5.416,5.416,0,0,1,1.4.188c0-.028-.005-.055-.005-.083a5.355,5.355,0,0,1,5.354-5.354,5.334,5.334,0,0,1,4.058,1.869" transform="translate(404.63 1513.908)" fill="none" stroke="#333f54" stroke-linecap="round" stroke-linejoin="round" stroke-width="2.414"/>
    <path id="Path_628" data-name="Path 628" d="M0,0C-14.282-34.835,12.51-59.123,12.51-59.123S39.3-34.835,25.021,0M5.8-24.345a6.706,6.706,0,0,1,6.706-6.7,6.706,6.706,0,0,1,6.7,6.7,6.706,6.706,0,0,1-6.7,6.7A6.706,6.706,0,0,1,5.8-24.345Z" transform="translate(404.252 1493.244)" fill="none" stroke="#333f54" stroke-width="2.414"/>
    <path id="Path_629" data-name="Path 629" d="M0,0C.087,5.117-1.206,11.986-4.52,21.03-7.834,11.986-9.126,5.117-9.04,0" transform="translate(421.284 1510.565)" fill="none" stroke="#333f54" stroke-linecap="round" stroke-linejoin="round" stroke-width="2.414"/>
  </g>
</svg>
