<svg xmlns="http://www.w3.org/2000/svg" width="115.383" height="75.323" viewBox="0 0 115.383 75.323">
  <g id="Group_854" data-name="Group 854" transform="translate(-727.734 -1673.751)">
    <path id="Path_618" data-name="Path 618" d="M0,0A16.036,16.036,0,0,1,16.034,16,16.039,16.039,0,0,1,8.142,29.8,15.927,15.927,0,0,1,0,32.01" transform="translate(815.374 1705.355)" fill="none" stroke="#6173c7" stroke-width="2"/>
    <path id="Path_619" data-name="Path 619" d="M0,0V26.576H-27.815a20.109,20.109,0,0,1-20.076-20.1A20.206,20.206,0,0,1-35.1-12.247l.435-.163.02-.467a12.175,12.175,0,0,1,12.2-11.769,12.166,12.166,0,0,1,2.975.35l.663.172.188-.664A29.839,29.839,0,0,1,9.955-46.333,29.867,29.867,0,0,1,37.87-26.851l.225.46h.493A26.513,26.513,0,0,1,65.078.088,26.556,26.556,0,0,1,52.014,22.927a26.339,26.339,0,0,1-13.426,3.649h-21.4V0" transform="translate(776.832 1721.291)" fill="none" stroke="#333f54" stroke-width="2.414"/>
    <g id="Group_781" data-name="Group 781" transform="translate(800.568 1728.121)">
      <path id="Path_621" data-name="Path 621" d="M0,0-15.143-15.26-30.285,0" fill="none" stroke="#333f54" stroke-linecap="round" stroke-width="2.414"/>
    </g>
    <path id="Path_622" data-name="Path 622" d="M0,0S-12.95,1.207-17.276-8.48a15.137,15.137,0,0,1,2.3-15.886,14.873,14.873,0,0,1,9.007-5.063s-2.668-6.278,2.747-9.809c0,0,3.492-2.512,10.046-.55,0,0,2.391-18.834,23.307-22.522,0,0-22.425,7.769-17.186,28.565,0,0-6.789-3.718-10.4,2.158,0,0-2.571,4.571.372,7.573A10.6,10.6,0,0,0-7.113-19.4a11.517,11.517,0,0,0-1.923,8.067C-8.6-7.483-6.769-1.839,0,0" transform="translate(754.237 1742.544)" fill="#ffc123"/>
  </g>
</svg>
