<svg xmlns="http://www.w3.org/2000/svg" width="104.594" height="97.309" viewBox="0 0 104.594 97.309">
  <g id="Group_851" data-name="Group 851" transform="translate(-1101.792 -1441.715)">
    <g id="Group_833" data-name="Group 833" transform="translate(1111.89 1537.817)">
      <path id="Path_678" data-name="Path 678" d="M0,0V-2.664a9.33,9.33,0,0,1-4.623-8.074A9.375,9.375,0,0,1,4.741-20.1V-64.957H-8.89V0Z" fill="#ffc423"/>
    </g>
    <g id="Group_834" data-name="Group 834" transform="translate(1186.426 1523.405)">
      <path id="Path_679" data-name="Path 679" d="M0,0H-6.024M3.991-15.656H-4.878M6.954-31.362H-3.811M-83.427,14.412h23.944a3.319,3.319,0,0,0,3.319-3.319V-47.226a3.319,3.319,0,0,0-3.319-3.319H-83.427Zm27.263-4.741a358.135,358.135,0,0,0,55.9,4.623c4.178,0,8.1-2.252,8.1-7.13C7.828,3.151,4.505,0,0,0H3.366a8.023,8.023,0,0,0,8.1-7.323,7.845,7.845,0,0,0-7.828-8.366H7a8.023,8.023,0,0,0,8.1-7.323A7.845,7.845,0,0,0,7.27-31.378h3.366a8.023,8.023,0,0,0,8.1-7.323A7.845,7.845,0,0,0,10.9-47.068H-17.722a3.762,3.762,0,0,1-3.687-4.546A38.2,38.2,0,0,0-24.4-76.794a6.365,6.365,0,0,0-12.107,2.615c-.421,22.739-19.656,28.731-19.656,28.731M-65.173,3.675A4.622,4.622,0,0,0-69.795-.948a4.622,4.622,0,0,0-4.623,4.623A4.622,4.622,0,0,0-69.795,8.3,4.622,4.622,0,0,0-65.173,3.675ZM-69.795,8.3v6.115" fill="none" stroke="#333f54" stroke-linecap="round" stroke-linejoin="round" stroke-width="2.414"/>
    </g>
  </g>
</svg>
