<svg xmlns="http://www.w3.org/2000/svg" width="118.248" height="96.866" viewBox="0 0 118.248 96.866">
  <g id="Group_856" data-name="Group 856" transform="translate(-726.302 -1894.618)">
    <path id="Path_650" data-name="Path 650" d="M0,0H-4.681A1.192,1.192,0,0,1-5.873-1.192V-5.873A1.192,1.192,0,0,1-4.681-7.065H0A1.192,1.192,0,0,1,1.192-5.873v4.681A1.192,1.192,0,0,1,0,0" transform="translate(744.736 1925.853)" fill="#ffc123"/>
    <path id="Path_651" data-name="Path 651" d="M0,0H-4.681A1.192,1.192,0,0,1-5.873-1.192V-5.873A1.192,1.192,0,0,1-4.681-7.065H0A1.192,1.192,0,0,1,1.192-5.873v4.681A1.192,1.192,0,0,1,0,0" transform="translate(755.494 1925.853)" fill="#ffc123"/>
    <path id="Path_652" data-name="Path 652" d="M0,0H-4.681A1.192,1.192,0,0,1-5.873-1.192V-5.873A1.192,1.192,0,0,1-4.681-7.065H0A1.192,1.192,0,0,1,1.192-5.873v4.681A1.192,1.192,0,0,1,0,0" transform="translate(766.251 1925.853)" fill="#ffc123"/>
    <path id="Path_653" data-name="Path 653" d="M0,0H-4.681A1.192,1.192,0,0,1-5.873-1.192V-5.873A1.192,1.192,0,0,1-4.681-7.065H0A1.192,1.192,0,0,1,1.192-5.873v4.681A1.192,1.192,0,0,1,0,0" transform="translate(777.008 1925.853)" fill="#ffc123"/>
    <path id="Path_654" data-name="Path 654" d="M0,0H-4.681A1.192,1.192,0,0,1-5.873-1.192V-5.873A1.192,1.192,0,0,1-4.681-7.065H0A1.192,1.192,0,0,1,1.192-5.873v4.681A1.192,1.192,0,0,1,0,0" transform="translate(787.766 1925.853)" fill="#ffc123"/>
    <path id="Path_655" data-name="Path 655" d="M0,0H-4.681A1.192,1.192,0,0,1-5.873-1.192V-5.873A1.192,1.192,0,0,1-4.681-7.065H0A1.192,1.192,0,0,1,1.192-5.873v4.681A1.192,1.192,0,0,1,0,0" transform="translate(798.523 1925.853)" fill="#ffc123"/>
    <path id="Path_656" data-name="Path 656" d="M0,0H-4.681A1.192,1.192,0,0,1-5.873-1.192V-5.873A1.192,1.192,0,0,1-4.681-7.065H0A1.192,1.192,0,0,1,1.192-5.873v4.681A1.192,1.192,0,0,1,0,0" transform="translate(809.28 1925.853)" fill="#ffc123"/>
    <path id="Path_657" data-name="Path 657" d="M0,0H-4.681A1.192,1.192,0,0,1-5.873-1.192V-5.873A1.192,1.192,0,0,1-4.681-7.065H0A1.192,1.192,0,0,1,1.192-5.873v4.681A1.192,1.192,0,0,1,0,0" transform="translate(820.038 1925.853)" fill="#ffc123"/>
    <path id="Path_658" data-name="Path 658" d="M0,0H-4.681A1.192,1.192,0,0,1-5.873-1.192V-5.873A1.192,1.192,0,0,1-4.681-7.065H0A1.192,1.192,0,0,1,1.192-5.873v4.681A1.192,1.192,0,0,1,0,0" transform="translate(830.795 1925.853)" fill="#ffc123"/>
    <path id="Path_659" data-name="Path 659" d="M0,0H-4.681A1.192,1.192,0,0,1-5.873-1.192V-5.873A1.192,1.192,0,0,1-4.681-7.065H0A1.192,1.192,0,0,1,1.192-5.873v4.681A1.192,1.192,0,0,1,0,0" transform="translate(766.251 1936.768)" fill="#ffc123"/>
    <path id="Path_660" data-name="Path 660" d="M0,0H-4.681A1.192,1.192,0,0,1-5.873-1.192V-5.873A1.192,1.192,0,0,1-4.681-7.065H0A1.192,1.192,0,0,1,1.192-5.873v4.681A1.192,1.192,0,0,1,0,0" transform="translate(777.008 1936.768)" fill="#ffc123"/>
    <path id="Path_661" data-name="Path 661" d="M0,0H-4.681A1.192,1.192,0,0,1-5.873-1.192V-5.873A1.192,1.192,0,0,1-4.681-7.065H0A1.192,1.192,0,0,1,1.192-5.873v4.681A1.192,1.192,0,0,1,0,0" transform="translate(787.766 1936.768)" fill="#ffc123"/>
    <path id="Path_662" data-name="Path 662" d="M0,0H-4.681A1.192,1.192,0,0,1-5.873-1.192V-5.873A1.192,1.192,0,0,1-4.681-7.065H0A1.192,1.192,0,0,1,1.192-5.873v4.681A1.192,1.192,0,0,1,0,0" transform="translate(798.523 1936.768)" fill="#ffc123"/>
    <path id="Path_663" data-name="Path 663" d="M0,0H-4.681A1.192,1.192,0,0,1-5.873-1.192V-5.873A1.192,1.192,0,0,1-4.681-7.065H0A1.192,1.192,0,0,1,1.192-5.873v4.681A1.192,1.192,0,0,1,0,0" transform="translate(809.28 1936.768)" fill="#ffc123"/>
    <path id="Path_664" data-name="Path 664" d="M0,0H-4.681A1.192,1.192,0,0,1-5.873-1.192V-5.873A1.192,1.192,0,0,1-4.681-7.065H0A1.192,1.192,0,0,1,1.192-5.873v4.681A1.192,1.192,0,0,1,0,0" transform="translate(777.008 1947.683)" fill="#6173c7"/>
    <path id="Path_665" data-name="Path 665" d="M0,0H-4.681A1.192,1.192,0,0,1-5.873-1.192V-5.873A1.192,1.192,0,0,1-4.681-7.065H0A1.192,1.192,0,0,1,1.192-5.873v4.681A1.192,1.192,0,0,1,0,0" transform="translate(787.766 1947.683)" fill="#6173c7"/>
    <path id="Path_666" data-name="Path 666" d="M0,0H-4.681A1.192,1.192,0,0,1-5.873-1.192V-5.873A1.192,1.192,0,0,1-4.681-7.065H0A1.192,1.192,0,0,1,1.192-5.873v4.681A1.192,1.192,0,0,1,0,0" transform="translate(798.523 1947.683)" fill="#6173c7"/>
    <path id="Path_667" data-name="Path 667" d="M0,0V-7.9H3.094a3.1,3.1,0,0,1,3.1,3.095M18.546,6.263a61.574,61.574,0,0,1-2.923,17.262,31.419,31.419,0,0,0-.859,3.225H1.471M0-7.9v-8.221a3.094,3.094,0,0,0-3.094-3.094,3.1,3.1,0,0,0-3.1,3.094V6.785L-8.323,1.234a3.669,3.669,0,0,0-3.425-2.352A3.669,3.669,0,0,0-15.417,2.55a20.556,20.556,0,0,0,2.882,10.562A23.747,23.747,0,0,0-9.9,16.74a22.75,22.75,0,0,1,4.81,10.01M6.189,2.312v-7.9H9.283a3.1,3.1,0,0,1,3.1,3.094V5m0-6.636h3.094a3.1,3.1,0,0,1,3.095,3.094V6.263M16.476,40.434h-24V30.91h24Zm-4.849-4.762a.486.486,0,1,0-.485.485A.485.485,0,0,0,11.627,35.672Z" transform="translate(824.765 1949.843)" fill="none" stroke="#333f54" stroke-linecap="round" stroke-linejoin="round" stroke-width="2.414"/>
    <g id="Group_825" data-name="Group 825" transform="translate(837.143 1939.32)">
      <path id="Path_669" data-name="Path 669" d="M0,0V-25.337H-103.436V0" fill="none" stroke="#333f54" stroke-linejoin="round" stroke-width="2.414"/>
    </g>
    <path id="Path_670" data-name="Path 670" d="M0,0H50.575M-13.958-22.157v-7.9h-3.095a3.094,3.094,0,0,0-3.094,3.094M-32.5-15.894A61.573,61.573,0,0,0-29.582,1.368a31.288,31.288,0,0,1,.86,3.225h13.293m1.471-34.654v-8.221a3.094,3.094,0,0,1,3.094-3.094,3.1,3.1,0,0,1,3.1,3.094v22.91l2.134-5.551a3.669,3.669,0,0,1,3.424-2.353,3.669,3.669,0,0,1,3.669,3.669A20.549,20.549,0,0,1-1.424-9.046,23.638,23.638,0,0,1-4.06-5.417,22.742,22.742,0,0,0-8.869,4.593M-20.147-19.846v-7.9h-3.1a3.1,3.1,0,0,0-3.094,3.095v7.494m0-6.637h-3.095a3.1,3.1,0,0,0-3.094,3.1v4.809m2.091,34.171h24V8.753h-24Zm4.849-4.763a.485.485,0,0,1,.485-.485.485.485,0,0,1,.485.485A.485.485,0,0,1-25.1,14,.485.485,0,0,1-25.585,13.514Zm50.95-89.689H44.932a3.026,3.026,0,0,1,3.026,3.027,3.026,3.026,0,0,1-3.026,3.026H5.8A3.026,3.026,0,0,0,2.771-67.1h0A3.026,3.026,0,0,0,5.8-64.07H22.355a3.026,3.026,0,0,1,3.027,3.026v3.027" transform="translate(760.044 1972)" fill="none" stroke="#333f54" stroke-linecap="round" stroke-linejoin="round" stroke-width="2.414"/>
  </g>
</svg>
