<svg xmlns="http://www.w3.org/2000/svg" width="70.786" height="104.568" viewBox="0 0 70.786 104.568">
  <g id="Group_861" data-name="Group 861" transform="translate(-1118.695 -1662.278)">
    <path id="Path_642" data-name="Path 642" d="M0,0A27.514,27.514,0,0,0-29.464-27.444,27.6,27.6,0,0,0-54.927-2.33a27.435,27.435,0,0,0,7.809,21.62,16.426,16.426,0,0,1,4.861,11.495v.1h29.491v-.1A15.823,15.823,0,0,1-8.144,19.53,27.409,27.409,0,0,0,0,0ZM-46.665-1.787A19.289,19.289,0,0,1-28.88-19.328c.459-.032.922-.048,1.376-.048a19.151,19.151,0,0,1,12.692,4.795m-27.62,51.266h29.841m-12.289,20.2h-5.262a12.29,12.29,0,0,1-12.29-12.29V42.6h29.841v1.991A12.289,12.289,0,0,1-24.88,56.881Zm-7.041.249v1.55a4.41,4.41,0,0,0,4.41,4.411A4.411,4.411,0,0,0-23.1,58.68V57.116" transform="translate(1181.599 1702.548)" fill="none" stroke="#333f54" stroke-linecap="round" stroke-width="2.414"/>
    <path id="Path_643" data-name="Path 643" d="M0,0A22.994,22.994,0,0,0-3.435-6.9C14.623-7.319,25.347-16.449,30.159-21.9A20.889,20.889,0,0,1,24.073-9.488,22.025,22.025,0,0,0,18.456,0Z" transform="translate(1144.85 1726.993)" fill="#ffc423"/>
    <g id="Group_801" data-name="Group 801" transform="translate(1154.088 1668.591)">
      <path id="Path_645" data-name="Path 645" d="M0,0V-6.313M-11.62,2.3l-2.159-5.932M-21.753,8.435-25.811,3.6m-3.365,14.067-5.467-3.156M11.62,2.3l2.159-5.932M21.753,8.435,25.811,3.6m3.365,14.067,5.467-3.156" fill="none" stroke="#6173c7" stroke-width="3"/>
    </g>
  </g>
</svg>
