<svg width="35" height="71" viewBox="0 0 35 71" fill="none" xmlns="http://www.w3.org/2000/svg">
<path d="M29.7719 51.946C30.227 50.7032 30.4687 49.3924 30.4869 48.069C30.5141 44.8463 29.7227 41.6694 28.1869 38.836C25.9972 35.2185 23.2558 31.9653 20.0619 29.194C18.2899 27.4954 17.1659 26.407 16.6899 25.929C14.2366 23.345 13.0102 20.8284 13.0109 18.379C12.9637 17.419 13.1273 16.4604 13.4901 15.5703C13.8529 14.6803 14.4061 13.8805 15.1109 13.227C16.6585 11.916 18.646 11.2412 20.6719 11.339C25.1679 11.339 29.8012 13.4817 34.5719 17.767V6.13602C30.327 2.33951 24.8359 0.233615 19.1409 0.218018C13.8942 0.218018 9.56791 1.71435 6.16191 4.70702C4.34499 6.24446 2.89661 8.17038 1.92371 10.3426C0.950809 12.5148 0.478245 14.8777 0.54091 17.257C0.54091 23.107 3.02758 28.4804 8.00091 33.377C8.68158 33.989 9.53324 34.7714 10.5559 35.724C13.0953 38.0234 15.4369 40.5323 17.5559 43.224C18.6055 44.7355 19.159 46.536 19.1399 48.376C19.1381 49.6118 18.86 50.8316 18.3259 51.946H29.7719ZM30.6919 68.474C31.3764 67.7759 31.9108 66.9451 32.2623 66.0328C32.6139 65.1205 32.775 64.1459 32.7359 63.169C32.7779 62.1688 32.6186 61.1702 32.2675 60.2327C31.9164 59.2951 31.3806 58.4376 30.6919 57.711C29.9821 57.0066 29.134 56.4571 28.2012 56.097C27.2683 55.7369 26.2709 55.5742 25.2719 55.619C23.2436 55.5384 21.2639 56.2523 19.7539 57.609C19.0541 58.2469 18.5001 59.0283 18.1298 59.8998C17.7594 60.7713 17.5814 61.7125 17.6079 62.659C17.5578 63.7034 17.7178 64.7471 18.0785 65.7285C18.4393 66.7098 18.9933 67.6088 19.7079 68.372C20.437 69.0941 21.3079 69.6574 22.2655 70.0262C23.2231 70.395 24.2468 70.5615 25.2719 70.515C26.2666 70.5607 27.2601 70.4033 28.192 70.0524C29.1238 69.7015 29.9744 69.1644 30.6919 68.474" fill="black"/>
</svg>
