<svg xmlns="http://www.w3.org/2000/svg" xmlns:xlink="http://www.w3.org/1999/xlink" width="2135" height="1181.079" viewBox="0 0 2135 1181.079">
  <defs>
    <clipPath id="clip-path">
      <path id="Path_1487" data-name="Path 1487" d="M0,0H2135V-1181.079H0Z" fill="none"/>
    </clipPath>
  </defs>
  <g id="Group_1486" data-name="Group 1486" transform="translate(0 1181.079)" clip-path="url(#clip-path)">
    <g id="Group_1461" data-name="Group 1461" transform="translate(258.487 -413.239)">
      <path id="Path_1462" data-name="Path 1462" d="M0,0A.27.27,0,0,1-.261-.206C-14.85-58.151-40.475-77.285-40.732-77.471a.277.277,0,0,1-.109-.271l.767-4.408a.267.267,0,0,1,.311-.222.272.272,0,0,1,.218.317l-.737,4.243c2.06,1.6,26.46,21.537,40.543,77.47a.274.274,0,0,1-.194.333A.263.263,0,0,1,0,0"/>
    </g>
    <g id="Group_1462" data-name="Group 1462" transform="translate(196.747 -362.232)">
      <path id="Path_1463" data-name="Path 1463" d="M0,0A.259.259,0,0,1-.142-.042.269.269,0,0,1-.266-.235C-.351-.85-8.747-62.017-8.747-93.578c0-13.344,3.266-22.1,6-27.09a25.88,25.88,0,0,1,5.96-7.689l4.36-24.232a.272.272,0,0,1,.313-.22.273.273,0,0,1,.216.318L3.729-128.154a.28.28,0,0,1-.106.171,25.132,25.132,0,0,0-5.914,7.615c-2.7,4.933-5.918,13.585-5.918,26.79C-8.209-63.246-.44-5.5.222-.635L69.913-23.8a.27.27,0,0,1,.34.175.275.275,0,0,1-.173.346L.083-.013A.262.262,0,0,1,0,0"/>
    </g>
    <g id="Group_1463" data-name="Group 1463" transform="translate(228.867 -332.872)">
      <path id="Path_1464" data-name="Path 1464" d="M0,0A32.715,32.715,0,0,1-32.388-29.6a.274.274,0,0,1,.24-.3.279.279,0,0,1,.3.243A32.173,32.173,0,0,0,0-.547l225.546,0V-29.391L37.844-52.63a.272.272,0,0,1-.234-.3.271.271,0,0,1,.3-.238L225.847-29.9a.272.272,0,0,1,.237.271V-.276a.272.272,0,0,1-.269.274Z"/>
    </g>
    <g id="Group_1464" data-name="Group 1464" transform="translate(429.035 -365.407)">
      <path id="Path_1465" data-name="Path 1465" d="M0,0A.265.265,0,0,1-.191-.081L-72.962-74.92a19.781,19.781,0,0,0-27.548-.908l-49.8,45a.266.266,0,0,1-.38-.023.276.276,0,0,1,.023-.386l49.8-45a20.318,20.318,0,0,1,28.289.933L.191-.466a.276.276,0,0,1,0,.387A.264.264,0,0,1,0,0"/>
    </g>
    <g id="Group_1465" data-name="Group 1465" transform="translate(371.269 -372.559)">
      <path id="Path_1466" data-name="Path 1466" d="M0,0A.268.268,0,0,1-.168-.06l-28.91-23.475L-51.188-6.806a.268.268,0,0,1-.377-.056.277.277,0,0,1,.055-.383L-29.233-24.1a.266.266,0,0,1,.329.006L.168-.487A.276.276,0,0,1,.21-.1.265.265,0,0,1,0,0"/>
    </g>
    <g id="Group_1466" data-name="Group 1466" transform="translate(342.196 -396.166)">
      <path id="Path_1467" data-name="Path 1467" d="M0,0A.271.271,0,0,1-.269-.274V-8.3A.271.271,0,0,1,0-8.573.271.271,0,0,1,.269-8.3V-.274A.271.271,0,0,1,0,0"/>
    </g>
    <g id="Group_1467" data-name="Group 1467" transform="translate(267.628 -388.677)">
      <path id="Path_1468" data-name="Path 1468" d="M0,0A.123.123,0,0,1-.027,0c-16.726-1.713-30.633-7.44-41.335-17.02-8.561-7.664-15.1-17.794-19.428-30.109A112.3,112.3,0,0,1-66.531-88.58a.278.278,0,0,1,.291-.249.272.272,0,0,1,.245.3A111.723,111.723,0,0,0-60.277-47.3C-55.977-35.076-49.491-25.025-41-17.426-30.425-7.963-16.688-2.291-.165-.566L6.92-16.342C-10.407-21.791-20.563-34.32-26.04-43.9a72.973,72.973,0,0,1-7.835-19.807.274.274,0,0,1,.212-.322.27.27,0,0,1,.316.215,72.354,72.354,0,0,0,7.782,19.655c5.458,9.542,15.6,22.038,32.936,27.383a.274.274,0,0,1,.167.149.284.284,0,0,1,0,.227L.245-.16A.27.27,0,0,1,0,0"/>
    </g>
    <g id="Group_1468" data-name="Group 1468" transform="translate(289.617 -386.032)">
      <path id="Path_1469" data-name="Path 1469" d="M0,0A.269.269,0,0,1-.241-.152l-1.02-2.1a13.44,13.44,0,0,0-7.24-6.7L-17.667-12.5a.273.273,0,0,1-.156-.352.267.267,0,0,1,.347-.158L-8.31-9.458A13.981,13.981,0,0,1-.778-2.494L.241-.4a.276.276,0,0,1-.122.367A.266.266,0,0,1,0,0"/>
    </g>
    <g id="Group_1469" data-name="Group 1469" transform="translate(200.211 -490.161)">
      <path id="Path_1470" data-name="Path 1470" d="M0,0A.272.272,0,0,1-.269-.266.272.272,0,0,1-.007-.547l17.7-.5a.281.281,0,0,1,.276.266.271.271,0,0,1-.261.281L.007,0Z"/>
    </g>
    <g id="Group_1470" data-name="Group 1470" transform="translate(1984.999 -91.093)">
      <path id="Path_1471" data-name="Path 1471" d="M0,0H20.022L33.99,12.278a2.06,2.06,0,0,0,1.355.512,2.008,2.008,0,0,0,.869-.2,2.128,2.128,0,0,0,1.21-1.936V0a8.433,8.433,0,0,0,8.317-8.527v-25.58a8.433,8.433,0,0,0-8.317-8.526v21.316A12.651,12.651,0,0,1,24.949-8.527H6.466L-2.678-.5" fill="#2b2e34"/>
    </g>
    <g id="Group_1471" data-name="Group 1471" transform="translate(1978.264 -94.658)">
      <path id="Path_1472" data-name="Path 1472" d="M0,0A8.544,8.544,0,0,1-1.068-2.11c-.051-.144-.088-.289-.132-.437a8.607,8.607,0,0,1-.381-2.415v-25.58A8.592,8.592,0,0,1-.329-34.985a2.132,2.132,0,0,1-1.252-1.952A2.106,2.106,0,0,1,.5-39.069H40v-4.263a8.432,8.432,0,0,0-8.316-8.527H-5.739a8.432,8.432,0,0,0-8.317,8.527v25.58A8.432,8.432,0,0,0-5.739-9.225V1.433a2.134,2.134,0,0,0,1.21,1.935,2.008,2.008,0,0,0,.869.2,2.044,2.044,0,0,0,1.351-.512L.483.6C.335.426.188.253.054.067.037.044.017.024,0,0" fill="#2b2e34"/>
    </g>
    <g id="Group_1472" data-name="Group 1472" transform="translate(1978.264 -94.658)">
      <path id="Path_1473" data-name="Path 1473" d="M0,0A8.527,8.527,0,0,1-1.068-2.11,8.544,8.544,0,0,0,0,0" fill="#2b2e34"/>
    </g>
    <g id="Group_1473" data-name="Group 1473" transform="translate(1977.064 -97.205)">
      <path id="Path_1474" data-name="Path 1474" d="M0,0A8.548,8.548,0,0,1-.381-2.415,8.6,8.6,0,0,0,0,0" fill="#2b2e34"/>
    </g>
    <g id="Group_1474" data-name="Group 1474" transform="translate(1978.318 -94.59)">
      <path id="Path_1475" data-name="Path 1475" d="M0,0C.133.186.281.359.428.532L.477.49C.328.316.135.186,0,0" fill="#2b2e34"/>
    </g>
    <g id="Group_1475" data-name="Group 1475" transform="translate(1978.318 -94.59)">
      <path id="Path_1476" data-name="Path 1476" d="M0,0C-.017-.023-.038-.044-.054-.067-.037-.044-.017-.024,0,0" fill="#2b2e34"/>
    </g>
    <g id="Group_1476" data-name="Group 1476" transform="translate(1977.196 -96.768)">
      <path id="Path_1477" data-name="Path 1477" d="M0,0C-.05-.143-.09-.291-.132-.437-.089-.289-.051-.144,0,0" fill="#2b2e34"/>
    </g>
    <g id="Group_1477" data-name="Group 1477" transform="translate(2005.79 -131.595)">
      <path id="Path_1478" data-name="Path 1478" d="M0,0A2.106,2.106,0,0,1-2.079,2.132h-24.95a2.03,2.03,0,0,1-.827-.18,8.6,8.6,0,0,0-1.252,4.443V8.527a2.107,2.107,0,0,1,2.079-2.132H-10.4A2.106,2.106,0,0,1-8.317,8.527,2.106,2.106,0,0,1-10.4,10.658H-27.029a2.107,2.107,0,0,1-2.079-2.131V31.975a8.519,8.519,0,0,0,.382,2.415c.042.146.082.294.132.437a8.558,8.558,0,0,0,1.067,2.11c.017.024.038.044.055.067.135.186.328.316.477.49l11.131-9.782H4.158a8.433,8.433,0,0,0,8.317-8.527V-2.132H-2.079A2.106,2.106,0,0,1,0,0" fill="#2b2e34"/>
    </g>
    <g id="Group_1493" data-name="Group 1493">
      <g id="Group_1492" data-name="Group 1492">
        <g id="Group_1478" data-name="Group 1478" transform="translate(312.514 -122.861)">
          <path id="Path_1479" data-name="Path 1479" d="M0,0A3.611,3.611,0,0,0-3.716-3.678c-1.293-.059-2.591-.01-3.886-.01v-.018c-1.388,0-2.777.019-4.165-.008-.7-.014-1.014.251-1.019.965-.013,2.082-.048,4.163-.091,6.244-.011.553.157.9.768.895,2.96-.022,5.93.1,8.876-.111C-1.111,4.125.147,2.221,0,0" fill="#51cc5e"/>
        </g>
        <g id="Group_1491" data-name="Group 1491">
          <g id="Group_1479" data-name="Group 1479" transform="translate(300.97 -132.382)">
            <path id="Path_1480" data-name="Path 1480" d="M0,0C1.247-.022,2.495-.006,3.743-.006V-.044c1.2,0,2.4.051,3.6-.011C9.6-.171,10.759-1.447,10.776-3.724a3.451,3.451,0,0,0-3.5-3.811c-2.447-.081-4.9-.018-7.346-.06-.8-.013-1.049.328-1.043,1.077.014,1.8.014,3.605-.049,5.405C-1.194-.225-.783.014,0,0" fill="#51cc5e"/>
          </g>
          <g id="Group_1490" data-name="Group 1490">
            <g id="Group_1480" data-name="Group 1480" transform="translate(277.496 -142.141)">
              <path id="Path_1481" data-name="Path 1481" d="M0,0-.012.026c0,.011,0,.021,0,.033Z" fill="#f7f9f7"/>
            </g>
            <g id="Group_1481" data-name="Group 1481" transform="translate(340.438 -140.179)">
              <path id="Path_1482" data-name="Path 1482" d="M0,0A37.075,37.075,0,0,0-35.477-25.928a36.322,36.322,0,0,0-22.331,7.557A36.942,36.942,0,0,0-69,26.6,3.867,3.867,0,0,1-68.6,29c-.906,5.386-1.732,10.786-2.616,16.176-.326,1.989-.338,1.986,1.6,1.662,5.3-.887,10.593-1.747,15.89-2.614a3.775,3.775,0,0,1,2.3.222c10.728,4.988,21.5,5.065,32.18-.034A37.025,37.025,0,0,0,0,0M-5.315,16.1a34.833,34.833,0,0,1-2.008,7.233A30.467,30.467,0,0,1-20.075,37.558a17.362,17.362,0,0,1-5.56,2.458.184.184,0,0,1-.21.085,18,18,0,0,1-7.257,1.41,28.177,28.177,0,0,1-16.224-3.206,6.164,6.164,0,0,0-4.238-.659c-2.866.517-5.738,1-8.607,1.5-1.441.251-1.53.169-1.3-1.257.514-3.244.989-6.5,1.562-9.729a3.947,3.947,0,0,0-.443-2.636c-4.562-9.052-4.983-18.208-.6-27.458-.051-.366.207-.583.418-.822l.194-.323a.547.547,0,0,1,.291-.539,25.1,25.1,0,0,1,8.741-9.99c10.493-7.273,21.567-7.912,32.775-1.995C-13.1-11.681-8.311-5.313-5.915,2.786a4.115,4.115,0,0,1,.076.822l.005.028A23.544,23.544,0,0,1-5.315,16.1" fill="#f7f9f7"/>
            </g>
            <g id="Group_1482" data-name="Group 1482" transform="translate(335.613 -129.007)">
              <path id="Path_1483" data-name="Path 1483" d="M0,0C0-.038,0-.076,0-.115c0-.07,0-.139,0-.21a29.241,29.241,0,0,0-.814-7c-.02-.082-.04-.164-.061-.246a29,29,0,0,0-1.791-5.041A30.63,30.63,0,0,0-18.55-28.2a29.107,29.107,0,0,0-5.165-1.715,29.215,29.215,0,0,0-6.73-.72h-.07a30.368,30.368,0,0,0-17.268,5.355,29.479,29.479,0,0,0-6.377,5.743A29.727,29.727,0,0,0-59.1-10.827c-.055.146-.109.293-.161.44-.006.016-.011.031-.016.046A30.459,30.459,0,0,0-61.032-.115c0,.029,0,.058,0,.086A30.11,30.11,0,0,0-58.5,12.337,13.786,13.786,0,0,1-57.21,15.9a11.243,11.243,0,0,1-.211,3.388q-.345,2.094-.691,4.186c-.144.872-.968,3.173-.6,3.968.731,1.568,5.4-.427,6.785-.427a14.865,14.865,0,0,1,4.884-.545,17.007,17.007,0,0,1,4.461,1.563A30.06,30.06,0,0,0-30.521,30.4h.012c.149,0,.3,0,.447-.005a30.421,30.421,0,0,0,10.151-1.889,29.793,29.793,0,0,0,9.139-5.247A29.462,29.462,0,0,0-5.1,16.774,30.377,30.377,0,0,0,0,0V0" fill="#51cc5e"/>
            </g>
            <g id="Group_1483" data-name="Group 1483" transform="translate(316.208 -128.706)">
              <path id="Path_1484" data-name="Path 1484" d="M0,0A6.25,6.25,0,0,0-.751-.507.809.809,0,0,1-1.008-.7c-.261-.341.154-.776.49-1.044A7.462,7.462,0,0,0,1.827-7.192,9.508,9.508,0,0,0,.366-13.406a8.978,8.978,0,0,0-5.314-3.242,26.727,26.727,0,0,0-6.328-.45l-8.563.074a3.1,3.1,0,0,0-2.544.817,3.071,3.071,0,0,0-.419,1.865Q-22.91-1.3-23.017,11.743a9.657,9.657,0,0,0,.365,3.343.952.952,0,0,0,.353.579,2.5,2.5,0,0,0,.737.287,6.921,6.921,0,0,0,1.62.128l10.776-.027c2.453-.006,5.011-.036,7.2-1.148A9.384,9.384,0,0,0,2.8,7.663,8.554,8.554,0,0,0,0,0M-16.353-10.194c-.006-.749.244-1.09,1.043-1.076,2.449.041,4.9-.022,7.347.06a3.45,3.45,0,0,1,3.5,3.81c-.018,2.277-1.18,3.553-3.43,3.669-1.2.062-2.4.011-3.6.011v.038c-1.247,0-2.495-.016-3.742.006-.784.014-1.195-.225-1.164-1.113.063-1.8.062-3.6.048-5.405m9.426,20.317c-2.946.213-5.917.089-8.877.111-.61,0-.779-.342-.767-.9.043-2.081.078-4.162.091-6.244,0-.714.323-.979,1.019-.965,1.388.027,2.776.008,4.165.008v.018c1.295,0,2.593-.049,3.886.01A3.611,3.611,0,0,1-3.694,5.844c.147,2.221-1.111,4.125-3.233,4.279" fill="#f7f9f7"/>
            </g>
          </g>
        </g>
      </g>
    </g>
    <g id="Group_1484" data-name="Group 1484" transform="translate(103.482 -333.211)">
      <path id="Path_1485" data-name="Path 1485" d="M0,0A52.962,52.962,0,0,0-50.681-37.039a51.875,51.875,0,0,0-31.9,10.8A52.776,52.776,0,0,0-98.566,38,5.525,5.525,0,0,1-98,41.424c-1.295,7.695-2.474,15.409-3.736,23.109-.466,2.842-.483,2.837,2.284,2.374,7.563-1.267,15.132-2.495,22.7-3.734a5.374,5.374,0,0,1,3.289.317c15.326,7.126,30.712,7.236,45.972-.049A52.894,52.894,0,0,0,0,0M-9.013,29.246a43.45,43.45,0,0,1-5.158,10.676,42.133,42.133,0,0,1-8.07,9.233l-.039.034c-.01.01-.022.018-.033.027-.435.368-.88.725-1.33,1.073l-.183.143q-.687.527-1.4,1.022l-.083.06c-.428.3-.868.587-1.31.874-.34.218-.682.433-1.028.641l-.068.041a43.683,43.683,0,0,1-7.626,3.615,43.462,43.462,0,0,1-14.5,2.7c-.213.005-.426.006-.64.008h-.016A42.976,42.976,0,0,1-67.72,56.014c-.522-.224-1.043-.459-1.567-.689a17.391,17.391,0,0,0-4.805-1.544,11.263,11.263,0,0,0-2.117-.045,33.982,33.982,0,0,0-4.86.824,10.366,10.366,0,0,0-2.1.386c-1.938.485-4.5,1.235-6.132,1.053a1.669,1.669,0,0,1-1.458-.829c-.016-.035-.026-.077-.039-.115-.347-1.024.367-3.367.729-4.817.071-.285.13-.538.163-.737l.987-5.98c.138-.832.274-1.673.342-2.514a10.516,10.516,0,0,0-.04-2.326,19.627,19.627,0,0,0-1.841-5.1,41.008,41.008,0,0,1-1.781-4.818,43.857,43.857,0,0,1-1.837-12.848c0-.041,0-.081,0-.122A43.519,43.519,0,0,1-91.57,1.187c.008-.022.016-.044.023-.066.076-.21.152-.42.231-.628.143-.393.3-.781.453-1.169.292-.734.6-1.463.927-2.181.14-.3.292-.606.44-.908.16-.327.321-.653.488-.975.038-.072.077-.142.115-.213.491-.932,1.012-1.848,1.572-2.74a40.854,40.854,0,0,1,3.058-4.253,41.743,41.743,0,0,1,7.413-7c.557-.413,1.12-.816,1.7-1.2a43.506,43.506,0,0,1,7.409-4.09A43.424,43.424,0,0,1-50.485-27.8h.1a41.959,41.959,0,0,1,8.373.767q.623.121,1.241.262a41.353,41.353,0,0,1,7.378,2.45,43.458,43.458,0,0,1,5.6,2.89A43.767,43.767,0,0,1-10.7-2.057c.483,1.047.918,2.115,1.314,3.2.06.163.122.325.18.489.1.289.193.582.288.873.111.341.224.682.327,1.026.068.231.129.465.194.7.085.307.178.611.256.919.03.117.059.234.087.352q.463,1.9.737,3.841A42.571,42.571,0,0,1-6.893,15.5c0,.1,0,.2,0,.3,0,.054,0,.109,0,.163v.005a44.1,44.1,0,0,1-.339,5.261,43.4,43.4,0,0,1-1.782,8.021" fill="#2b2e34"/>
    </g>
    <g id="Group_1485" data-name="Group 1485" transform="translate(68.868 -316.821)">
      <path id="Path_1486" data-name="Path 1486" d="M0,0A8.8,8.8,0,0,0-1.073-.724,1.18,1.18,0,0,1-1.44-1c-.373-.488.22-1.109.7-1.492C1.534-4.3,2.416-7.372,2.611-10.274A13.585,13.585,0,0,0,.523-19.152a12.831,12.831,0,0,0-7.591-4.631,38.122,38.122,0,0,0-9.041-.642l-12.232.1c-1.32.011-2.836.115-3.634,1.167a4.38,4.38,0,0,0-.6,2.665q-.154,18.632-.307,37.264a13.78,13.78,0,0,0,.521,4.776,1.361,1.361,0,0,0,.5.827,3.59,3.59,0,0,0,1.052.409,9.817,9.817,0,0,0,2.315.184l15.394-.039c3.505-.009,7.159-.052,10.283-1.64A13.4,13.4,0,0,0,4,10.947C4.491,6.916,3.14,2.47,0,0M-23.361-14.562c-.009-1.071.348-1.558,1.49-1.539,3.5.06,7-.031,10.495.086,3.163.106,5.027,2.232,5,5.444C-6.4-7.319-8.059-5.5-11.273-5.33c-1.711.088-3.431.016-5.148.016v.054c-1.782,0-3.565-.023-5.347.009-1.119.02-1.706-.322-1.662-1.59.089-2.572.089-5.148.069-7.721M-9.9,14.461c-4.208.3-8.452.128-12.681.159-.872.006-1.112-.489-1.1-1.278.061-2.973.112-5.947.131-8.921.006-1.019.46-1.4,1.455-1.378,1.983.038,3.966.011,5.949.011V3.08c1.851,0,3.705-.069,5.552.015A5.158,5.158,0,0,1-5.277,8.349c.21,3.172-1.588,5.893-4.619,6.112" fill="#2b2e34"/>
    </g>
  </g>
</svg>
