<svg xmlns="http://www.w3.org/2000/svg" width="131.707" height="112.82" viewBox="0 0 131.707 112.82">
  <g id="Group_1490" data-name="Group 1490" transform="translate(-254.147 -2911.949)">
    <g id="Group_877" data-name="Group 877" transform="translate(341.215 2996.442)">
      <path id="Path_717" data-name="Path 717" d="M0,0H12.958a30.017,30.017,0,0,0,15.3-4.155,30.223,30.223,0,0,0,14.885-26A30.193,30.193,0,0,0,12.958-60.293H12.4l-.257-.524a34.025,34.025,0,0,0-31.8-22.176A33.991,33.991,0,0,0-52.222-58.469l-.215.756-.756-.195a13.843,13.843,0,0,0-3.388-.4,13.866,13.866,0,0,0-13.9,13.4l-.023.532-.5.186A23,23,0,0,0-85.568-22.879,22.9,22.9,0,0,0-62.694,0H-42.43M12.958-48.326A18.215,18.215,0,0,1,31.171-30.152a18.216,18.216,0,0,1-8.964,15.671,18.091,18.091,0,0,1-9.249,2.514H.252" fill="none" stroke="#fff" stroke-linejoin="round" stroke-width="3"/>
    </g>
    <path id="Path_719" data-name="Path 719" d="M0,0V30.252m19.581,0V0" transform="translate(310.21 2982.939)" fill="none" stroke="#fff" stroke-width="3"/>
    <path id="Path_720" data-name="Path 720" d="M0,0-17.178,17.179-34.357,0" transform="translate(337.179 3005.469)" fill="none" stroke="#fff" stroke-linecap="round" stroke-width="3"/>
    <path id="Path_721" data-name="Path 721" d="M0,0S-14.776,1.377-19.711-9.676A17.272,17.272,0,0,1-17.084-27.8,16.976,16.976,0,0,1-6.8-33.58S-9.85-40.744-3.671-44.773c0,0,3.986-2.866,11.462-.627,0,0,2.729-21.491,26.6-25.7,0,0-25.587,8.865-19.611,32.595,0,0-7.744-4.243-11.864,2.462,0,0-2.932,5.217.425,8.642A12.1,12.1,0,0,0-8.116-22.135a13.146,13.146,0,0,0-2.194,9.2C-9.811-8.539-7.721-2.1,0,0" transform="translate(284.412 2990.468)" fill="#ffeb00"/>
  </g>
</svg>
