<svg xmlns="http://www.w3.org/2000/svg" width="112.84" height="127.453" viewBox="0 0 112.84 127.453">
  <g id="Group_1489" data-name="Group 1489" transform="translate(-1551.271 -2907.132)">
    <g id="Group_883" data-name="Group 883" transform="translate(1605.397 2917.552)">
      <path id="Path_723" data-name="Path 723" d="M0,0H-11.751a1.5,1.5,0,0,1-1.5-1.5,1.5,1.5,0,0,1,1.5-1.5H0A1.5,1.5,0,0,1,1.5-1.5,1.5,1.5,0,0,1,0,0" fill="#fff"/>
    </g>
    <g id="Group_884" data-name="Group 884" transform="translate(1606.287 3034.585)">
      <path id="Path_724" data-name="Path 724" d="M0,0H-46.122a8.9,8.9,0,0,1-8.893-8.893V-118.561a8.9,8.9,0,0,1,8.893-8.892H32.592a8.9,8.9,0,0,1,8.892,8.892v35.155a1.5,1.5,0,0,1-1.5,1.5,1.5,1.5,0,0,1-1.5-1.5v-35.155a5.9,5.9,0,0,0-5.892-5.892H-46.122a5.9,5.9,0,0,0-5.893,5.892V-8.893A5.9,5.9,0,0,0-46.122-3H0A1.5,1.5,0,0,1,1.5-1.5,1.5,1.5,0,0,1,0,0" fill="#fff"/>
    </g>
    <g id="Group_885" data-name="Group 885" transform="translate(1605.397 3027.167)">
      <path id="Path_725" data-name="Path 725" d="M0,0H-11.751a1.5,1.5,0,0,1-1.5-1.5,1.5,1.5,0,0,1,1.5-1.5H0A1.5,1.5,0,0,1,1.5-1.5,1.5,1.5,0,0,1,0,0" fill="#fff"/>
    </g>
    <g id="Group_886" data-name="Group 886" transform="translate(1646.271 2924.971)">
      <path id="Path_726" data-name="Path 726" d="M0,0H-93.5A1.5,1.5,0,0,1-95-1.5,1.5,1.5,0,0,1-93.5-3H0A1.5,1.5,0,0,1,1.5-1.5,1.5,1.5,0,0,1,0,0" fill="#fff"/>
    </g>
    <g id="Group_887" data-name="Group 887" transform="translate(1605.397 3019.746)">
      <path id="Path_727" data-name="Path 727" d="M0,0H-52.625a1.5,1.5,0,0,1-1.5-1.5,1.5,1.5,0,0,1,1.5-1.5H0A1.5,1.5,0,0,1,1.5-1.5,1.5,1.5,0,0,1,0,0" fill="#fff"/>
    </g>
    <path id="Path_728" data-name="Path 728" d="M0,0H-6.306A3.229,3.229,0,0,1-9.535-3.229V-9.535a3.229,3.229,0,0,1,3.229-3.229H0A3.229,3.229,0,0,1,3.229-9.535v6.306A3.229,3.229,0,0,1,0,0" transform="translate(1572.528 2946.527)" fill="#ffc123"/>
    <g id="Group_889" data-name="Group 889" transform="translate(1592.313 2946.527)">
      <path id="Path_729" data-name="Path 729" d="M0,0H-6.306A3.229,3.229,0,0,1-9.535-3.229V-9.535a3.229,3.229,0,0,1,3.229-3.229H0A3.229,3.229,0,0,1,3.229-9.535v6.306A3.229,3.229,0,0,1,0,0" fill="#ffc123"/>
    </g>
    <g id="Group_890" data-name="Group 890" transform="translate(1612.097 2946.527)">
      <path id="Path_730" data-name="Path 730" d="M0,0H-6.306A3.229,3.229,0,0,1-9.535-3.229V-9.535a3.229,3.229,0,0,1,3.229-3.229H0A3.229,3.229,0,0,1,3.229-9.535v6.306A3.229,3.229,0,0,1,0,0" fill="#ffc123"/>
    </g>
    <g id="Group_891" data-name="Group 891" transform="translate(1572.528 2967.169)">
      <path id="Path_731" data-name="Path 731" d="M0,0H-6.306A3.229,3.229,0,0,1-9.535-3.229V-9.535a3.229,3.229,0,0,1,3.229-3.229H0A3.229,3.229,0,0,1,3.229-9.535v6.306A3.229,3.229,0,0,1,0,0" fill="#ffc123"/>
    </g>
    <g id="Group_892" data-name="Group 892" transform="translate(1592.313 2967.169)">
      <path id="Path_732" data-name="Path 732" d="M0,0H-6.306A3.229,3.229,0,0,1-9.535-3.229V-9.535a3.228,3.228,0,0,1,3.229-3.229H0A3.229,3.229,0,0,1,3.229-9.535v6.306A3.229,3.229,0,0,1,0,0" fill="#ffc123"/>
    </g>
    <path id="Path_733" data-name="Path 733" d="M0,0H-6.306A3.229,3.229,0,0,1-9.535-3.229V-9.535a3.228,3.228,0,0,1,3.229-3.229H0A3.229,3.229,0,0,1,3.229-9.535v6.306A3.229,3.229,0,0,1,0,0" transform="translate(1572.528 2987.812)" fill="#ffc123"/>
    <g id="Group_894" data-name="Group 894" transform="translate(1592.313 2987.812)">
      <path id="Path_734" data-name="Path 734" d="M0,0H-6.306A3.229,3.229,0,0,1-9.535-3.229V-9.535a3.228,3.228,0,0,1,3.229-3.229H0A3.229,3.229,0,0,1,3.229-9.535v6.306A3.229,3.229,0,0,1,0,0" fill="#ffc123"/>
    </g>
    <g id="Group_895" data-name="Group 895" transform="translate(1633.685 2971.589)">
      <path id="Path_735" data-name="Path 735" d="M0,0A1.5,1.5,0,0,1-1.5-1.5V-13.815a1.5,1.5,0,0,1,1.5-1.5H4.821a6.328,6.328,0,0,1,6.321,6.322,1.5,1.5,0,0,1-1.5,1.5,1.5,1.5,0,0,1-1.5-1.5,3.325,3.325,0,0,0-3.321-3.322H1.5V-1.5A1.5,1.5,0,0,1,0,0" fill="#fff"/>
    </g>
    <g id="Group_896" data-name="Group 896" transform="translate(1656.687 3013.267)">
      <path id="Path_736" data-name="Path 736" d="M0,0H-20.71a1.5,1.5,0,0,1-1.5-1.5A1.5,1.5,0,0,1-20.71-3H-1.2c.225-.945.593-2.366,1.115-3.986A94.351,94.351,0,0,0,4.392-33.46a1.5,1.5,0,0,1,1.5-1.461h.04a1.5,1.5,0,0,1,1.46,1.538A97.33,97.33,0,0,1,2.767-6.066,47.466,47.466,0,0,0,1.472-1.212,1.5,1.5,0,0,1,0,0" fill="#fff"/>
    </g>
    <g id="Group_897" data-name="Group 897" transform="translate(1625.754 3013.267)">
      <path id="Path_737" data-name="Path 737" d="M0,0A1.5,1.5,0,0,1-1.476-1.24C-1.491-1.326-3.055-9.889-8.609-16.1a38.271,38.271,0,0,1-4.277-5.883,33.532,33.532,0,0,1-4.7-17.225,7.223,7.223,0,0,1,7.215-7.216,7.259,7.259,0,0,1,6.736,4.627l.425,1.106V-68.3a6.329,6.329,0,0,1,6.321-6.321A6.329,6.329,0,0,1,9.431-68.3v12.808a1.5,1.5,0,0,1-1.5,1.5,1.5,1.5,0,0,1-1.5-1.5V-68.3a3.325,3.325,0,0,0-3.322-3.321A3.325,3.325,0,0,0-.212-68.3v35.7a1.5,1.5,0,0,1-1.226,1.474,1.5,1.5,0,0,1-1.674-.936l-3.325-8.65a4.241,4.241,0,0,0-3.936-2.7,4.221,4.221,0,0,0-4.215,4.216,30.525,30.525,0,0,0,4.277,15.684A35.261,35.261,0,0,0-6.374-18.1C-.234-11.234,1.412-2.142,1.479-1.758A1.5,1.5,0,0,1,.261-.023,1.552,1.552,0,0,1,0,0" fill="#fff"/>
    </g>
    <g id="Group_898" data-name="Group 898" transform="translate(1652.97 2979.372)">
      <path id="Path_738" data-name="Path 738" d="M0,0A1.5,1.5,0,0,1-1.5-1.5V-13.176A3.325,3.325,0,0,0-4.821-16.5H-8.143V-5.683a1.5,1.5,0,0,1-1.5,1.5,1.5,1.5,0,0,1-1.5-1.5V-18a1.5,1.5,0,0,1,1.5-1.5h4.822A6.329,6.329,0,0,1,1.5-13.176V-1.5A1.5,1.5,0,0,1,0,0" fill="#fff"/>
    </g>
    <g id="Group_899" data-name="Group 899" transform="translate(1662.612 2981.348)">
      <path id="Path_739" data-name="Path 739" d="M0,0A1.5,1.5,0,0,1-1.5-1.5V-8.994a3.325,3.325,0,0,0-3.321-3.321H-9.642a1.5,1.5,0,0,1-1.5-1.5,1.5,1.5,0,0,1,1.5-1.5h4.821A6.328,6.328,0,0,1,1.5-8.994V-1.5A1.5,1.5,0,0,1,0,0" fill="#fff"/>
    </g>
    <g id="Group_900" data-name="Group 900" transform="translate(1659.354 3034.585)">
      <path id="Path_740" data-name="Path 740" d="M0,0H-37.386a1.5,1.5,0,0,1-1.5-1.5V-16.339a1.5,1.5,0,0,1,1.5-1.5H0a1.5,1.5,0,0,1,1.5,1.5V-1.5A1.5,1.5,0,0,1,0,0M-35.886-3H-1.5V-14.839H-35.886Z" fill="#fff"/>
    </g>
  </g>
</svg>
