<svg width="109" height="134" viewBox="0 0 109 134" fill="none" xmlns="http://www.w3.org/2000/svg">
<path d="M35.725 95.998H12.971V89.188H35.725V95.998Z" fill="#FFEB00"/>
<path d="M12.975 79.8991H50.754M62.875 114.781H2.02301V2.99609H83.367V51.6961L62.875 114.781ZM50.721 51.6961H12.975V13.9461H50.725L50.721 51.6961ZM12.975 68.2341H50.754H12.975Z" stroke="white" stroke-width="4"/>
<path d="M20.783 43.8831H42.909V21.7571C42.909 21.7571 36.135 37.4831 20.783 43.8831Z" fill="#FFEB00"/>
<path d="M106.988 79.6591C106.988 73.3944 104.499 67.3863 100.07 62.9565C95.6397 58.5267 89.6317 56.0381 83.367 56.0381C80.265 56.038 77.1933 56.6488 74.3274 57.8359C71.4616 59.0229 68.8575 60.7628 66.6641 62.9562C64.4707 65.1497 62.7308 67.7537 61.5437 70.6196C60.3567 73.4855 59.7458 76.5571 59.746 79.6591C59.7458 82.7611 60.3567 85.8327 61.5437 88.6986C62.7308 91.5645 64.4707 94.1685 66.6641 96.3619C68.8575 98.5554 71.4616 100.295 74.3274 101.482C77.1933 102.669 80.265 103.28 83.367 103.28C89.6317 103.28 95.6397 100.791 100.07 96.3617C104.499 91.9319 106.988 85.9238 106.988 79.6591V79.6591Z" stroke="white" stroke-width="4"/>
<path d="M83.367 64.2341C87.4563 64.2386 91.3769 65.8651 94.2684 68.7567C97.16 71.6483 98.7865 75.5688 98.791 79.6581" stroke="white" stroke-width="4" stroke-linecap="round"/>
<path d="M78.518 107.972V126.997C78.518 128.283 79.029 129.517 79.9385 130.426C80.8481 131.336 82.0817 131.847 83.368 131.847C84.6543 131.847 85.8879 131.336 86.7975 130.426C87.707 129.517 88.218 128.283 88.218 126.997V107.972" stroke="white" stroke-width="4"/>
</svg>
